# xmcd CD database file
#
# Track frame offsets:
#	150
#	9182
#	28097
#	43303
#	53412
#	71015
#	81327
#	93808
#	103364
#	113489
#	125645
#	137809
#	151922
#	165421
#
# Disc length: 2418 seconds
#
# Revision: 1
# Processed by: cddbd v1.5.1PL0 Copyright (c) Steve Scherf et al.
# Submitted via: CDex 1.50Beta7
#
DISCID=af09700e
DTITLE=Taxmeni - Country arena
DYEAR=1900
DGENRE=Country
TTITLE0=Vlak do zlatodolu
TTITLE1=Guadalcanal
TTITLE2=Slecny
TTITLE3=Jednicka za dobrou divanou
TTITLE4=Pulnocni dostavnik
TTITLE5=Podzimni den
TTITLE6=Balvan do kopce
TTITLE7=Ven se divej
TTITLE8=Tam,kde jsi laskou mel zit
TTITLE9=Reka velkych prani
TTITLE10=Noc plna prani
TTITLE11=Lilie skautska
TTITLE12=Ja a muj nakladak
TTITLE13=Cerny zavoj
EXTD=
EXTT0=
EXTT1=
EXTT2=
EXTT3=
EXTT4=
EXTT5=
EXTT6=
EXTT7=
EXTT8=
EXTT9=
EXTT10=
EXTT11=
EXTT12=
EXTT13=
PLAYORDER=
